{
    "asset" : {
        "generator" : "Khronos glTF Blender I/O v3.2.43",
        "version" : "2.0"
    },
    "scene" : 0,
    "scenes" : [
        {
            "name" : "Scene",
            "nodes" : [
                0,
                1
            ]
        }
    ],
    "nodes" : [
        {
            "mesh" : 0,
            "name" : "\u7a7a\u8c03_01"
        },
        {
            "mesh" : 1,
            "name" : "\u7acb\u65b9\u4f53",
            "translation" : [
                0,
                0.039858799427747726,
                0
            ]
        }
    ],
    "animations" : [
        {
            "channels" : [
                {
                    "sampler" : 0,
                    "target" : {
                        "node" : 1,
                        "path" : "scale"
                    }
                }
            ],
            "name" : "\u5173",
            "samplers" : [
                {
                    "input" : 10,
                    "interpolation" : "LINEAR",
                    "output" : 11
                }
            ]
        },
        {
            "channels" : [
                {
                    "sampler" : 0,
                    "target" : {
                        "node" : 1,
                        "path" : "scale"
                    }
                }
            ],
            "name" : "\u5f00",
            "samplers" : [
                {
                    "input" : 12,
                    "interpolation" : "LINEAR",
                    "output" : 13
                }
            ]
        }
    ],
    "materials" : [
        {
            "doubleSided" : true,
            "name" : "Material__25.001",
            "pbrMetallicRoughness" : {
                "baseColorTexture" : {
                    "index" : 0
                },
                "roughnessFactor" : 0.8318207263946533
            }
        },
        {
            "alphaMode" : "BLEND",
            "doubleSided" : true,
            "emissiveFactor" : [
                1,
                1,
                1
            ],
            "emissiveTexture" : {
                "index" : 1
            },
            "name" : "\u6750\u8d28",
            "pbrMetallicRoughness" : {
                "baseColorTexture" : {
                    "index" : 2
                },
                "metallicFactor" : 0,
                "roughnessFactor" : 0.5
            }
        }
    ],
    "meshes" : [
        {
            "name" : "\u7f51\u683c.002",
            "primitives" : [
                {
                    "attributes" : {
                        "POSITION" : 0,
                        "NORMAL" : 1,
                        "TEXCOORD_0" : 2,
                        "TEXCOORD_1" : 3,
                        "COLOR_0" : 4
                    },
                    "indices" : 5,
                    "material" : 0
                }
            ]
        },
        {
            "name" : "\u7acb\u65b9\u4f53.001",
            "primitives" : [
                {
                    "attributes" : {
                        "POSITION" : 6,
                        "NORMAL" : 7,
                        "TEXCOORD_0" : 8
                    },
                    "indices" : 9,
                    "material" : 1
                }
            ]
        }
    ],
    "textures" : [
        {
            "sampler" : 0,
            "source" : 0
        },
        {
            "sampler" : 0,
            "source" : 1
        },
        {
            "sampler" : 0,
            "source" : 1
        }
    ],
    "images" : [
        {
            "mimeType" : "image/jpeg",
            "name" : "\u5c4b\u9876\u7a7a\u8c03",
            "uri" : "texture/%E5%B1%8B%E9%A1%B6%E7%A9%BA%E8%B0%83.jpg"
        },
        {
            "mimeType" : "image/png",
            "name" : "\u98ce",
            "uri" : "texture/%E9%A3%8E.png"
        }
    ],
    "accessors" : [
        {
            "bufferView" : 0,
            "componentType" : 5126,
            "count" : 1038,
            "max" : [
                0.4276005029678345,
                0.2912103235721588,
                0.21473759412765503
            ],
            "min" : [
                -0.4234069585800171,
                -6.924897322235779e-10,
                -0.2111533135175705
            ],
            "type" : "VEC3"
        },
        {
            "bufferView" : 1,
            "componentType" : 5126,
            "count" : 1038,
            "type" : "VEC3"
        },
        {
            "bufferView" : 2,
            "componentType" : 5126,
            "count" : 1038,
            "type" : "VEC2"
        },
        {
            "bufferView" : 3,
            "componentType" : 5126,
            "count" : 1038,
            "type" : "VEC2"
        },
        {
            "bufferView" : 4,
            "componentType" : 5123,
            "count" : 1038,
            "normalized" : true,
            "type" : "VEC4"
        },
        {
            "bufferView" : 5,
            "componentType" : 5123,
            "count" : 2532,
            "type" : "SCALAR"
        },
        {
            "bufferView" : 6,
            "componentType" : 5126,
            "count" : 44,
            "max" : [
                0.38857030868530273,
                -0.03154895454645157,
                0.19298210740089417
            ],
            "min" : [
                -0.38857030868530273,
                -0.39080333709716797,
                -0.19298210740089417
            ],
            "type" : "VEC3"
        },
        {
            "bufferView" : 7,
            "componentType" : 5126,
            "count" : 44,
            "type" : "VEC3"
        },
        {
            "bufferView" : 8,
            "componentType" : 5126,
            "count" : 44,
            "type" : "VEC2"
        },
        {
            "bufferView" : 9,
            "componentType" : 5123,
            "count" : 108,
            "type" : "SCALAR"
        },
        {
            "bufferView" : 10,
            "componentType" : 5126,
            "count" : 40,
            "max" : [
                1.6
            ],
            "min" : [
                0.04
            ],
            "type" : "SCALAR"
        },
        {
            "bufferView" : 11,
            "componentType" : 5126,
            "count" : 40,
            "type" : "VEC3"
        },
        {
            "bufferView" : 12,
            "componentType" : 5126,
            "count" : 40,
            "max" : [
                3.2
            ],
            "min" : [
                1.64
            ],
            "type" : "SCALAR"
        },
        {
            "bufferView" : 13,
            "componentType" : 5126,
            "count" : 40,
            "type" : "VEC3"
        }
    ],
    "bufferViews" : [
        {
            "buffer" : 0,
            "byteLength" : 12456,
            "byteOffset" : 0
        },
        {
            "buffer" : 0,
            "byteLength" : 12456,
            "byteOffset" : 12456
        },
        {
            "buffer" : 0,
            "byteLength" : 8304,
            "byteOffset" : 24912
        },
        {
            "buffer" : 0,
            "byteLength" : 8304,
            "byteOffset" : 33216
        },
        {
            "buffer" : 0,
            "byteLength" : 8304,
            "byteOffset" : 41520
        },
        {
            "buffer" : 0,
            "byteLength" : 5064,
            "byteOffset" : 49824
        },
        {
            "buffer" : 0,
            "byteLength" : 528,
            "byteOffset" : 54888
        },
        {
            "buffer" : 0,
            "byteLength" : 528,
            "byteOffset" : 55416
        },
        {
            "buffer" : 0,
            "byteLength" : 352,
            "byteOffset" : 55944
        },
        {
            "buffer" : 0,
            "byteLength" : 216,
            "byteOffset" : 56296
        },
        {
            "buffer" : 0,
            "byteLength" : 160,
            "byteOffset" : 56512
        },
        {
            "buffer" : 0,
            "byteLength" : 480,
            "byteOffset" : 56672
        },
        {
            "buffer" : 0,
            "byteLength" : 160,
            "byteOffset" : 57152
        },
        {
            "buffer" : 0,
            "byteLength" : 480,
            "byteOffset" : 57312
        }
    ],
    "samplers" : [
        {
            "magFilter" : 9729,
            "minFilter" : 9987
        }
    ],
    "buffers" : [
        {
            "byteLength" : 57792,
            "uri" : "\u7a7a\u8c03.bin"
        }
    ]
}
