{
    "asset" : {
        "generator" : "Khronos glTF Blender I/O v3.2.43",
        "version" : "2.0"
    },
    "scene" : 0,
    "scenes" : [
        {
            "name" : "Scene",
            "nodes" : [
                0
            ]
        }
    ],
    "nodes" : [
        {
            "extras" : {
                "mr \u7f6e\u6362\u4f7f\u7528\u5168\u5c40\u8bbe\u7f6e" : 1,
                "mr \u7f6e\u6362\u89c6\u56fe\u4f9d\u8d56" : 1,
                "mr \u7f6e\u6362\u65b9\u6cd5" : 6,
                "mr \u7f6e\u6362\u5e73\u6ed1\u4f4d\u7f6e" : 1,
                "mr \u7f6e\u6362\u8fb9\u957f" : 2.0,
                "mr \u7f6e\u6362\u6700\u5927\u7f6e\u6362" : 20.0,
                "mr \u7f6e\u6362\u53c2\u6570\u5316\u7ec6\u5206\u7ea7\u522b" : 5,
                "NameChecked" : "true",
                "Author" : "\u51af\u71d5",
                "MeshChecked" : "true",
                "Derivation" : "uBuilderLib2\\\u5b89\u9632\\\u76d1\u63a7\u6444\u50cf\u5934",
                "ModDate" : "2015-10-23-10-39-05",
                "MaterialChecked" : "true",
                "ResetTransform" : "true",
                "MaxHandle" : 23
            },
            "mesh" : 0,
            "name" : "Lo-Body_01",
            "rotation" : [
                0,
                -1,
                0,
                1.6292068494294654e-07
            ],
            "scale" : [
                5,
                5,
                5
            ]
        }
    ],
    "materials" : [
        {
            "doubleSided" : true,
            "extras" : {
                "\u542f\u7528" : 0
            },
            "name" : "Std_NTexture_01.jpg",
            "pbrMetallicRoughness" : {
                "baseColorTexture" : {
                    "index" : 0
                },
                "roughnessFactor" : 0.858578622341156
            }
        }
    ],
    "meshes" : [
        {
            "name" : "Mesh",
            "primitives" : [
                {
                    "attributes" : {
                        "POSITION" : 0,
                        "NORMAL" : 1,
                        "TEXCOORD_0" : 2
                    },
                    "indices" : 3,
                    "material" : 0
                }
            ]
        }
    ],
    "textures" : [
        {
            "sampler" : 0,
            "source" : 0
        }
    ],
    "images" : [
        {
            "mimeType" : "image/jpeg",
            "name" : "NTexture_01",
            "uri" : "NTexture_01.jpg"
        }
    ],
    "accessors" : [
        {
            "bufferView" : 0,
            "componentType" : 5126,
            "count" : 2182,
            "max" : [
                0.06311893463134766,
                0.21675743162631989,
                0.0989801362156868
            ],
            "min" : [
                -0.06311893463134766,
                0.00012941440218128264,
                -0.0989801362156868
            ],
            "type" : "VEC3"
        },
        {
            "bufferView" : 1,
            "componentType" : 5126,
            "count" : 2182,
            "type" : "VEC3"
        },
        {
            "bufferView" : 2,
            "componentType" : 5126,
            "count" : 2182,
            "type" : "VEC2"
        },
        {
            "bufferView" : 3,
            "componentType" : 5123,
            "count" : 6036,
            "type" : "SCALAR"
        }
    ],
    "bufferViews" : [
        {
            "buffer" : 0,
            "byteLength" : 26184,
            "byteOffset" : 0
        },
        {
            "buffer" : 0,
            "byteLength" : 26184,
            "byteOffset" : 26184
        },
        {
            "buffer" : 0,
            "byteLength" : 17456,
            "byteOffset" : 52368
        },
        {
            "buffer" : 0,
            "byteLength" : 12072,
            "byteOffset" : 69824
        }
    ],
    "samplers" : [
        {
            "magFilter" : 9729,
            "minFilter" : 9987
        }
    ],
    "buffers" : [
        {
            "byteLength" : 81896,
            "uri" : "camera.bin"
        }
    ]
}
