{
    "asset" : {
        "generator" : "Khronos glTF Blender I/O v3.2.43",
        "version" : "2.0"
    },
    "scene" : 0,
    "scenes" : [
        {
            "name" : "Scene",
            "nodes" : [
                0,
                1
            ]
        }
    ],
    "nodes" : [
        {
            "extras" : {
                "type" : "Door",
                "tags" : [
                    "BuildingElement",
                    "Door"
                ]
            },
            "mesh" : 0,
            "name" : "leftDoor",
            "rotation" : [
                0,
                0.705658495426178,
                0,
                0.7085521817207336
            ],
            "translation" : [
                -1,
                0,
                0
            ]
        },
        {
            "extras" : {
                "type" : "Door",
                "tags" : [
                    "BuildingElement",
                    "Door"
                ]
            },
            "mesh" : 1,
            "name" : "rightDoor",
            "rotation" : [
                0,
                0.7056585550308228,
                0,
                0.7085521221160889
            ],
            "translation" : [
                1,
                0,
                0
            ]
        }
    ],
    "animations" : [
        {
            "channels" : [
                {
                    "sampler" : 0,
                    "target" : {
                        "node" : 0,
                        "path" : "translation"
                    }
                },
                {
                    "sampler" : 1,
                    "target" : {
                        "node" : 0,
                        "path" : "rotation"
                    }
                },
                {
                    "sampler" : 2,
                    "target" : {
                        "node" : 1,
                        "path" : "translation"
                    }
                },
                {
                    "sampler" : 3,
                    "target" : {
                        "node" : 1,
                        "path" : "rotation"
                    }
                }
            ],
            "name" : "\u5173",
            "samplers" : [
                {
                    "input" : 22,
                    "interpolation" : "LINEAR",
                    "output" : 23
                },
                {
                    "input" : 22,
                    "interpolation" : "LINEAR",
                    "output" : 24
                },
                {
                    "input" : 25,
                    "interpolation" : "LINEAR",
                    "output" : 26
                },
                {
                    "input" : 25,
                    "interpolation" : "LINEAR",
                    "output" : 27
                }
            ]
        },
        {
            "channels" : [
                {
                    "sampler" : 0,
                    "target" : {
                        "node" : 0,
                        "path" : "translation"
                    }
                },
                {
                    "sampler" : 1,
                    "target" : {
                        "node" : 0,
                        "path" : "rotation"
                    }
                },
                {
                    "sampler" : 2,
                    "target" : {
                        "node" : 1,
                        "path" : "translation"
                    }
                },
                {
                    "sampler" : 3,
                    "target" : {
                        "node" : 1,
                        "path" : "rotation"
                    }
                }
            ],
            "name" : "\u5f00",
            "samplers" : [
                {
                    "input" : 25,
                    "interpolation" : "LINEAR",
                    "output" : 28
                },
                {
                    "input" : 25,
                    "interpolation" : "LINEAR",
                    "output" : 29
                },
                {
                    "input" : 22,
                    "interpolation" : "LINEAR",
                    "output" : 30
                },
                {
                    "input" : 22,
                    "interpolation" : "LINEAR",
                    "output" : 31
                }
            ]
        }
    ],
    "materials" : [
        {
            "name" : "Standard.166",
            "pbrMetallicRoughness" : {
                "baseColorTexture" : {
                    "index" : 0
                },
                "metallicFactor" : 0,
                "roughnessFactor" : 0.6000000238418579
            }
        },
        {
            "name" : "_06.bmp.bmp_jg_md (Instance).046",
            "occlusionTexture" : {
                "index" : 1,
                "texCoord" : 1
            },
            "pbrMetallicRoughness" : {
                "baseColorFactor" : [
                    0.8068901896476746,
                    0.8068901896476746,
                    0.8068901896476746,
                    1
                ],
                "baseColorTexture" : {
                    "index" : 2
                },
                "metallicFactor" : 0,
                "roughnessFactor" : 0.6000000238418579
            }
        },
        {
            "name" : "Standard.002",
            "pbrMetallicRoughness" : {
                "baseColorTexture" : {
                    "index" : 3
                },
                "metallicFactor" : 0,
                "roughnessFactor" : 0.6000000238418579
            }
        },
        {
            "name" : "_06.bmp.bmp_jg_md (Instance).002",
            "pbrMetallicRoughness" : {
                "baseColorFactor" : [
                    0.8068901896476746,
                    0.8068901896476746,
                    0.8068901896476746,
                    1
                ],
                "baseColorTexture" : {
                    "index" : 4
                },
                "metallicFactor" : 0,
                "roughnessFactor" : 0.6000000238418579
            }
        }
    ],
    "meshes" : [
        {
            "name" : "mesh_Box006_Instance_-314790Box006",
            "primitives" : [
                {
                    "attributes" : {
                        "POSITION" : 0,
                        "NORMAL" : 1,
                        "TEXCOORD_0" : 2,
                        "TEXCOORD_1" : 3,
                        "COLOR_0" : 4
                    },
                    "indices" : 5,
                    "material" : 0
                },
                {
                    "attributes" : {
                        "POSITION" : 6,
                        "NORMAL" : 7,
                        "TEXCOORD_0" : 8,
                        "TEXCOORD_1" : 9,
                        "COLOR_0" : 10
                    },
                    "indices" : 11,
                    "material" : 1
                }
            ]
        },
        {
            "name" : "mesh_Box006_Instance_-314790Box006.003",
            "primitives" : [
                {
                    "attributes" : {
                        "POSITION" : 12,
                        "NORMAL" : 13,
                        "TEXCOORD_0" : 14,
                        "TEXCOORD_1" : 15,
                        "COLOR_0" : 16
                    },
                    "indices" : 5,
                    "material" : 2
                },
                {
                    "attributes" : {
                        "POSITION" : 17,
                        "NORMAL" : 18,
                        "TEXCOORD_0" : 19,
                        "TEXCOORD_1" : 20,
                        "COLOR_0" : 21
                    },
                    "indices" : 11,
                    "material" : 3
                }
            ]
        }
    ],
    "textures" : [
        {
            "sampler" : 0,
            "source" : 0
        },
        {
            "sampler" : 0,
            "source" : 1
        },
        {
            "sampler" : 0,
            "source" : 2
        },
        {
            "sampler" : 0,
            "source" : 0
        },
        {
            "sampler" : 0,
            "source" : 2
        }
    ],
    "images" : [
        {
            "mimeType" : "image/png",
            "name" : "89707A19DF456D94CB14C1C76CCA5038",
            "uri" : "89707A19DF456D94CB14C1C76CCA5038.png"
        },
        {
            "mimeType" : "image/png",
            "name" : "DCA79C8B252976D68B6B295AAA764EA9",
            "uri" : "DCA79C8B252976D68B6B295AAA764EA9.png"
        },
        {
            "mimeType" : "image/png",
            "name" : "15DCBA2E9CF57480D76063DBCBBE705E",
            "uri" : "15DCBA2E9CF57480D76063DBCBBE705E.png"
        }
    ],
    "accessors" : [
        {
            "bufferView" : 0,
            "componentType" : 5126,
            "count" : 1932,
            "max" : [
                -0.8076620101928711,
                1.0675758123397827,
                0.09002960473299026
            ],
            "min" : [
                -0.854893684387207,
                0.8524604439735413,
                -0.09002944827079773
            ],
            "type" : "VEC3"
        },
        {
            "bufferView" : 1,
            "componentType" : 5126,
            "count" : 1932,
            "type" : "VEC3"
        },
        {
            "bufferView" : 2,
            "componentType" : 5126,
            "count" : 1932,
            "type" : "VEC2"
        },
        {
            "bufferView" : 3,
            "componentType" : 5126,
            "count" : 1932,
            "type" : "VEC2"
        },
        {
            "bufferView" : 4,
            "componentType" : 5123,
            "count" : 1932,
            "normalized" : true,
            "type" : "VEC4"
        },
        {
            "bufferView" : 5,
            "componentType" : 5123,
            "count" : 3360,
            "type" : "SCALAR"
        },
        {
            "bufferView" : 6,
            "componentType" : 5126,
            "count" : 60,
            "max" : [
                4.88710829813499e-05,
                2.0999999046325684,
                0.022431593388319016
            ],
            "min" : [
                -1.0000337362289429,
                -1.069712851631266e-07,
                -0.020000014454126358
            ],
            "type" : "VEC3"
        },
        {
            "bufferView" : 7,
            "componentType" : 5126,
            "count" : 60,
            "type" : "VEC3"
        },
        {
            "bufferView" : 8,
            "componentType" : 5126,
            "count" : 60,
            "type" : "VEC2"
        },
        {
            "bufferView" : 9,
            "componentType" : 5126,
            "count" : 60,
            "type" : "VEC2"
        },
        {
            "bufferView" : 10,
            "componentType" : 5123,
            "count" : 60,
            "normalized" : true,
            "type" : "VEC4"
        },
        {
            "bufferView" : 11,
            "componentType" : 5123,
            "count" : 60,
            "type" : "SCALAR"
        },
        {
            "bufferView" : 12,
            "componentType" : 5126,
            "count" : 1932,
            "max" : [
                -0.8076620101928711,
                1.0675758123397827,
                0.09002960473299026
            ],
            "min" : [
                -0.854893684387207,
                0.8524604439735413,
                -0.09002944827079773
            ],
            "type" : "VEC3"
        },
        {
            "bufferView" : 13,
            "componentType" : 5126,
            "count" : 1932,
            "type" : "VEC3"
        },
        {
            "bufferView" : 14,
            "componentType" : 5126,
            "count" : 1932,
            "type" : "VEC2"
        },
        {
            "bufferView" : 15,
            "componentType" : 5126,
            "count" : 1932,
            "type" : "VEC2"
        },
        {
            "bufferView" : 16,
            "componentType" : 5123,
            "count" : 1932,
            "normalized" : true,
            "type" : "VEC4"
        },
        {
            "bufferView" : 17,
            "componentType" : 5126,
            "count" : 60,
            "max" : [
                4.88710829813499e-05,
                2.0999999046325684,
                0.022431593388319016
            ],
            "min" : [
                -1.0000337362289429,
                -1.069712851631266e-07,
                -0.020000014454126358
            ],
            "type" : "VEC3"
        },
        {
            "bufferView" : 18,
            "componentType" : 5126,
            "count" : 60,
            "type" : "VEC3"
        },
        {
            "bufferView" : 19,
            "componentType" : 5126,
            "count" : 60,
            "type" : "VEC2"
        },
        {
            "bufferView" : 20,
            "componentType" : 5126,
            "count" : 60,
            "type" : "VEC2"
        },
        {
            "bufferView" : 21,
            "componentType" : 5123,
            "count" : 60,
            "normalized" : true,
            "type" : "VEC4"
        },
        {
            "bufferView" : 22,
            "componentType" : 5126,
            "count" : 40,
            "max" : [
                1.6666666666666667
            ],
            "min" : [
                0.041666666666666664
            ],
            "type" : "SCALAR"
        },
        {
            "bufferView" : 23,
            "componentType" : 5126,
            "count" : 40,
            "type" : "VEC3"
        },
        {
            "bufferView" : 24,
            "componentType" : 5126,
            "count" : 40,
            "type" : "VEC4"
        },
        {
            "bufferView" : 25,
            "componentType" : 5126,
            "count" : 41,
            "max" : [
                1.6666666666666667
            ],
            "min" : [
                0
            ],
            "type" : "SCALAR"
        },
        {
            "bufferView" : 26,
            "componentType" : 5126,
            "count" : 41,
            "type" : "VEC3"
        },
        {
            "bufferView" : 27,
            "componentType" : 5126,
            "count" : 41,
            "type" : "VEC4"
        },
        {
            "bufferView" : 28,
            "componentType" : 5126,
            "count" : 41,
            "type" : "VEC3"
        },
        {
            "bufferView" : 29,
            "componentType" : 5126,
            "count" : 41,
            "type" : "VEC4"
        },
        {
            "bufferView" : 30,
            "componentType" : 5126,
            "count" : 40,
            "type" : "VEC3"
        },
        {
            "bufferView" : 31,
            "componentType" : 5126,
            "count" : 40,
            "type" : "VEC4"
        }
    ],
    "bufferViews" : [
        {
            "buffer" : 0,
            "byteLength" : 23184,
            "byteOffset" : 0
        },
        {
            "buffer" : 0,
            "byteLength" : 23184,
            "byteOffset" : 23184
        },
        {
            "buffer" : 0,
            "byteLength" : 15456,
            "byteOffset" : 46368
        },
        {
            "buffer" : 0,
            "byteLength" : 15456,
            "byteOffset" : 61824
        },
        {
            "buffer" : 0,
            "byteLength" : 15456,
            "byteOffset" : 77280
        },
        {
            "buffer" : 0,
            "byteLength" : 6720,
            "byteOffset" : 92736
        },
        {
            "buffer" : 0,
            "byteLength" : 720,
            "byteOffset" : 99456
        },
        {
            "buffer" : 0,
            "byteLength" : 720,
            "byteOffset" : 100176
        },
        {
            "buffer" : 0,
            "byteLength" : 480,
            "byteOffset" : 100896
        },
        {
            "buffer" : 0,
            "byteLength" : 480,
            "byteOffset" : 101376
        },
        {
            "buffer" : 0,
            "byteLength" : 480,
            "byteOffset" : 101856
        },
        {
            "buffer" : 0,
            "byteLength" : 120,
            "byteOffset" : 102336
        },
        {
            "buffer" : 0,
            "byteLength" : 23184,
            "byteOffset" : 102456
        },
        {
            "buffer" : 0,
            "byteLength" : 23184,
            "byteOffset" : 125640
        },
        {
            "buffer" : 0,
            "byteLength" : 15456,
            "byteOffset" : 148824
        },
        {
            "buffer" : 0,
            "byteLength" : 15456,
            "byteOffset" : 164280
        },
        {
            "buffer" : 0,
            "byteLength" : 15456,
            "byteOffset" : 179736
        },
        {
            "buffer" : 0,
            "byteLength" : 720,
            "byteOffset" : 195192
        },
        {
            "buffer" : 0,
            "byteLength" : 720,
            "byteOffset" : 195912
        },
        {
            "buffer" : 0,
            "byteLength" : 480,
            "byteOffset" : 196632
        },
        {
            "buffer" : 0,
            "byteLength" : 480,
            "byteOffset" : 197112
        },
        {
            "buffer" : 0,
            "byteLength" : 480,
            "byteOffset" : 197592
        },
        {
            "buffer" : 0,
            "byteLength" : 160,
            "byteOffset" : 198072
        },
        {
            "buffer" : 0,
            "byteLength" : 480,
            "byteOffset" : 198232
        },
        {
            "buffer" : 0,
            "byteLength" : 640,
            "byteOffset" : 198712
        },
        {
            "buffer" : 0,
            "byteLength" : 164,
            "byteOffset" : 199352
        },
        {
            "buffer" : 0,
            "byteLength" : 492,
            "byteOffset" : 199516
        },
        {
            "buffer" : 0,
            "byteLength" : 656,
            "byteOffset" : 200008
        },
        {
            "buffer" : 0,
            "byteLength" : 492,
            "byteOffset" : 200664
        },
        {
            "buffer" : 0,
            "byteLength" : 656,
            "byteOffset" : 201156
        },
        {
            "buffer" : 0,
            "byteLength" : 480,
            "byteOffset" : 201812
        },
        {
            "buffer" : 0,
            "byteLength" : 640,
            "byteOffset" : 202292
        }
    ],
    "samplers" : [
        {
            "magFilter" : 9729,
            "minFilter" : 9987
        }
    ],
    "buffers" : [
        {
            "byteLength" : 202932,
            "uri" : "doors.bin"
        }
    ]
}
