{
  "asset": {
    "version": "2.0",
    "generator": "babylon.js glTF exporter for 3dsmax 2023 v20220923.2"
  },
  "scene": 0,
  "scenes": [
    {
      "nodes": [
        0,
        1
      ]
    }
  ],
  "nodes": [
    {
      "mesh": 0,
      "translation": [
        -0.01269719,
        0.0,
        0.00643867254
      ],
      "name": "Box001"
    },
    {
      "mesh": 1,
      "translation": [
        -0.01269719,
        0.0,
        0.00643867254
      ],
      "name": "扇叶"
    }
  ],
  "meshes": [
    {
      "primitives": [
        {
          "attributes": {
            "POSITION": 1,
            "NORMAL": 2,
            "COLOR_0": 3,
            "TEXCOORD_0": 4,
            "TEXCOORD_1": 5
          },
          "indices": 0,
          "material": 0
        }
      ],
      "name": "Box001"
    },
    {
      "primitives": [
        {
          "attributes": {
            "POSITION": 7,
            "NORMAL": 8,
            "COLOR_0": 9,
            "TEXCOORD_0": 10,
            "TEXCOORD_1": 11
          },
          "indices": 6,
          "material": 0
        }
      ],
      "name": "扇叶"
    }
  ],
  "accessors": [
    {
      "bufferView": 0,
      "componentType": 5123,
      "count": 2748,
      "type": "SCALAR",
      "name": "accessorIndices"
    },
    {
      "bufferView": 1,
      "componentType": 5126,
      "count": 882,
      "max": [
        0.195795223,
        0.5374908,
        0.18230778
      ],
      "min": [
        -0.162255272,
        -3.7252903E-08,
        -0.170303181
      ],
      "type": "VEC3",
      "name": "accessorPositions"
    },
    {
      "bufferView": 1,
      "byteOffset": 10584,
      "componentType": 5126,
      "count": 882,
      "type": "VEC3",
      "name": "accessorNormals"
    },
    {
      "bufferView": 2,
      "componentType": 5126,
      "count": 882,
      "type": "VEC4",
      "name": "accessorColors"
    },
    {
      "bufferView": 3,
      "componentType": 5126,
      "count": 882,
      "type": "VEC2",
      "name": "accessorUVs"
    },
    {
      "bufferView": 3,
      "byteOffset": 7056,
      "componentType": 5126,
      "count": 882,
      "type": "VEC2",
      "name": "accessorUV2s"
    },
    {
      "bufferView": 0,
      "byteOffset": 5496,
      "componentType": 5123,
      "count": 6516,
      "type": "SCALAR",
      "name": "accessorIndices"
    },
    {
      "bufferView": 1,
      "byteOffset": 21168,
      "componentType": 5126,
      "count": 1489,
      "max": [
        1.06227529,
        0.11094255,
        0.923099339
      ],
      "min": [
        -0.549330056,
        0.100643769,
        -0.9268103
      ],
      "type": "VEC3",
      "name": "accessorPositions"
    },
    {
      "bufferView": 1,
      "byteOffset": 39036,
      "componentType": 5126,
      "count": 1489,
      "type": "VEC3",
      "name": "accessorNormals"
    },
    {
      "bufferView": 2,
      "byteOffset": 14112,
      "componentType": 5126,
      "count": 1489,
      "type": "VEC4",
      "name": "accessorColors"
    },
    {
      "bufferView": 3,
      "byteOffset": 14112,
      "componentType": 5126,
      "count": 1489,
      "type": "VEC2",
      "name": "accessorUVs"
    },
    {
      "bufferView": 3,
      "byteOffset": 26024,
      "componentType": 5126,
      "count": 1489,
      "type": "VEC2",
      "name": "accessorUV2s"
    },
    {
      "bufferView": 4,
      "componentType": 5126,
      "count": 101,
      "max": [
        3.33333325
      ],
      "min": [
        0.0
      ],
      "type": "SCALAR",
      "name": "accessorAnimationInput"
    },
    {
      "bufferView": 5,
      "componentType": 5126,
      "count": 101,
      "type": "VEC4",
      "name": "accessorAnimationRotations"
    }
  ],
  "bufferViews": [
    {
      "buffer": 0,
      "byteLength": 18528,
      "name": "bufferViewScalar"
    },
    {
      "buffer": 0,
      "byteOffset": 18528,
      "byteLength": 56904,
      "byteStride": 12,
      "name": "bufferViewFloatVec3"
    },
    {
      "buffer": 0,
      "byteOffset": 75432,
      "byteLength": 37936,
      "byteStride": 16,
      "name": "bufferViewFloatVec4"
    },
    {
      "buffer": 0,
      "byteOffset": 113368,
      "byteLength": 37936,
      "byteStride": 8,
      "name": "bufferViewFloatVec2"
    },
    {
      "buffer": 0,
      "byteOffset": 151304,
      "byteLength": 404,
      "name": "bufferViewAnimationFloatScalar"
    },
    {
      "buffer": 0,
      "byteOffset": 151708,
      "byteLength": 1616,
      "name": "bufferViewAnimationFloatVec4"
    }
  ],
  "buffers": [
    {
      "uri": "风扇.bin",
      "byteLength": 153324
    }
  ],
  "materials": [
    {
      "pbrMetallicRoughness": {
        "baseColorTexture": {
          "index": 0
        },
        "metallicFactor": 0.0,
        "roughnessFactor": 0.450053632
      },
      "name": "bai"
    }
  ],
  "textures": [
    {
      "sampler": 0,
      "source": 0,
      "name": "白.jpg"
    }
  ],
  "images": [
    {
      "uri": "白.jpg"
    }
  ],
  "samplers": [
    {
      "magFilter": 9729,
      "minFilter": 9987
    }
  ],
  "animations": [
    {
      "channels": [
        {
          "sampler": 0,
          "target": {
            "node": 1,
            "path": "rotation"
          }
        }
      ],
      "samplers": [
        {
          "input": 12,
          "output": 13
        }
      ],
      "name": "All Animations"
    }
  ]
}