{
  "asset": {
    "version": "2.0",
    "generator": "babylon.js glTF exporter for 3dsmax 2023 v20220923.2"
  },
  "scene": 0,
  "scenes": [
    {
      "nodes": [
        0
      ]
    }
  ],
  "nodes": [
    {
      "children": [
        1
      ],
      "mesh": 0,
      "translation": [
        0.498405457,
        0.962985754,
        -1.22885857E-09
      ],
      "rotation": [
        0.49999997,
        -0.50000006,
        0.5000001,
        0.49999997
      ],
      "name": "Cylinder001"
    },
    {
      "mesh": 1,
      "translation": [
        -0.0150925713,
        0.06497222,
        0.962985754
      ],
      "rotation": [
        -0.49999997,
        0.49999997,
        -0.4999999,
        0.5000001
      ],
      "name": "Line001"
    }
  ],
  "meshes": [
    {
      "primitives": [
        {
          "attributes": {
            "POSITION": 1,
            "NORMAL": 2,
            "TEXCOORD_0": 3
          },
          "indices": 0,
          "material": 0
        }
      ],
      "name": "Cylinder001"
    },
    {
      "primitives": [
        {
          "attributes": {
            "POSITION": 5,
            "NORMAL": 6,
            "COLOR_0": 7,
            "TEXCOORD_0": 8,
            "TEXCOORD_1": 9
          },
          "indices": 4,
          "material": 1
        }
      ],
      "name": "Line001"
    }
  ],
  "accessors": [
    {
      "bufferView": 0,
      "componentType": 5123,
      "count": 132,
      "type": "SCALAR",
      "name": "accessorIndices"
    },
    {
      "bufferView": 1,
      "componentType": 5126,
      "count": 50,
      "max": [
        0.00500013167,
        1.03031456,
        0.005
      ],
      "min": [
        -0.005,
        0.0,
        -0.00500003528
      ],
      "type": "VEC3",
      "name": "accessorPositions"
    },
    {
      "bufferView": 1,
      "byteOffset": 600,
      "componentType": 5126,
      "count": 50,
      "type": "VEC3",
      "name": "accessorNormals"
    },
    {
      "bufferView": 2,
      "componentType": 5126,
      "count": 50,
      "type": "VEC2",
      "name": "accessorUVs"
    },
    {
      "bufferView": 0,
      "byteOffset": 264,
      "componentType": 5123,
      "count": 1764,
      "type": "SCALAR",
      "name": "accessorIndices"
    },
    {
      "bufferView": 1,
      "byteOffset": 1200,
      "componentType": 5126,
      "count": 754,
      "max": [
        0.042539835,
        1.0,
        0.0407537632
      ],
      "min": [
        -0.9522002,
        0.0,
        -0.012925474
      ],
      "type": "VEC3",
      "name": "accessorPositions"
    },
    {
      "bufferView": 1,
      "byteOffset": 10248,
      "componentType": 5126,
      "count": 754,
      "type": "VEC3",
      "name": "accessorNormals"
    },
    {
      "bufferView": 3,
      "componentType": 5126,
      "count": 754,
      "type": "VEC4",
      "name": "accessorColors"
    },
    {
      "bufferView": 2,
      "byteOffset": 400,
      "componentType": 5126,
      "count": 754,
      "type": "VEC2",
      "name": "accessorUVs"
    },
    {
      "bufferView": 2,
      "byteOffset": 6432,
      "componentType": 5126,
      "count": 754,
      "type": "VEC2",
      "name": "accessorUV2s"
    },
    {
      "bufferView": 4,
      "componentType": 5126,
      "count": 102,
      "max": [
        13.333333
      ],
      "min": [
        0.0
      ],
      "type": "SCALAR",
      "name": "accessorAnimationInput"
    },
    {
      "bufferView": 5,
      "componentType": 5126,
      "count": 102,
      "type": "VEC4",
      "name": "accessorAnimationRotations"
    },
    {
      "bufferView": 4,
      "byteOffset": 408,
      "componentType": 5126,
      "count": 96,
      "max": [
        13.333333
      ],
      "min": [
        0.0
      ],
      "type": "SCALAR",
      "name": "accessorAnimationInput"
    },
    {
      "bufferView": 6,
      "componentType": 5126,
      "count": 96,
      "type": "VEC3",
      "name": "accessorAnimationPositions"
    },
    {
      "bufferView": 4,
      "byteOffset": 792,
      "componentType": 5126,
      "count": 155,
      "max": [
        13.333333
      ],
      "min": [
        0.0
      ],
      "type": "SCALAR",
      "name": "accessorAnimationInput"
    },
    {
      "bufferView": 5,
      "byteOffset": 1632,
      "componentType": 5126,
      "count": 155,
      "type": "VEC4",
      "name": "accessorAnimationRotations"
    },
    {
      "bufferView": 4,
      "byteOffset": 1412,
      "componentType": 5126,
      "count": 169,
      "max": [
        13.333333
      ],
      "min": [
        0.0
      ],
      "type": "SCALAR",
      "name": "accessorAnimationInput"
    },
    {
      "bufferView": 6,
      "byteOffset": 1152,
      "componentType": 5126,
      "count": 169,
      "type": "VEC3",
      "name": "accessorAnimationScales"
    }
  ],
  "bufferViews": [
    {
      "buffer": 0,
      "byteLength": 3792,
      "name": "bufferViewScalar"
    },
    {
      "buffer": 0,
      "byteOffset": 3792,
      "byteLength": 19296,
      "byteStride": 12,
      "name": "bufferViewFloatVec3"
    },
    {
      "buffer": 0,
      "byteOffset": 23088,
      "byteLength": 12464,
      "byteStride": 8,
      "name": "bufferViewFloatVec2"
    },
    {
      "buffer": 0,
      "byteOffset": 35552,
      "byteLength": 12064,
      "byteStride": 16,
      "name": "bufferViewFloatVec4"
    },
    {
      "buffer": 0,
      "byteOffset": 47616,
      "byteLength": 2088,
      "name": "bufferViewAnimationFloatScalar"
    },
    {
      "buffer": 0,
      "byteOffset": 49704,
      "byteLength": 4112,
      "name": "bufferViewAnimationFloatVec4"
    },
    {
      "buffer": 0,
      "byteOffset": 53816,
      "byteLength": 3180,
      "name": "bufferViewAnimationFloatVec3"
    }
  ],
  "buffers": [
    {
      "uri": "窗帘.bin",
      "byteLength": 56996
    }
  ],
  "materials": [
    {
      "pbrMetallicRoughness": {
        "baseColorFactor": [
          0.294117659,
          0.294117659,
          0.294117659,
          1.0
        ],
        "metallicFactor": 0.0,
        "roughnessFactor": 0.165830582
      },
      "name": "19 - Default"
    },
    {
      "pbrMetallicRoughness": {
        "baseColorTexture": {
          "index": 0
        },
        "metallicFactor": 0.0,
        "roughnessFactor": 0.450053632
      },
      "name": "01 - Default"
    }
  ],
  "textures": [
    {
      "sampler": 0,
      "source": 0,
      "name": "窗帘.jpg"
    }
  ],
  "images": [
    {
      "uri": "窗帘.jpg"
    }
  ],
  "samplers": [
    {
      "magFilter": 9729,
      "minFilter": 9987
    }
  ],
  "animations": [
    {
      "channels": [
        {
          "sampler": 0,
          "target": {
            "node": 0,
            "path": "rotation"
          }
        },
        {
          "sampler": 1,
          "target": {
            "node": 1,
            "path": "translation"
          }
        },
        {
          "sampler": 2,
          "target": {
            "node": 1,
            "path": "rotation"
          }
        },
        {
          "sampler": 3,
          "target": {
            "node": 1,
            "path": "scale"
          }
        }
      ],
      "samplers": [
        {
          "input": 10,
          "output": 11
        },
        {
          "input": 12,
          "output": 13
        },
        {
          "input": 14,
          "output": 15
        },
        {
          "input": 16,
          "output": 17
        }
      ],
      "name": "All Animations"
    }
  ]
}