{
    "asset" : {
        "generator" : "Khronos glTF Blender I/O v3.2.43",
        "version" : "2.0"
    },
    "extensionsUsed" : [
        "KHR_texture_transform"
    ],
    "extensionsRequired" : [
        "KHR_texture_transform"
    ],
    "scene" : 0,
    "scenes" : [
        {
            "name" : "Scene",
            "nodes" : [
                0,
                1,
                2,
                3
            ]
        }
    ],
    "nodes" : [
        {
            "extras" : {
                "NameChecked" : "true",
                "Author" : "\u90dd\u4e2d\u884c",
                "MeshChecked" : "true",
                "Derivation" : "20211103\u8bbe\u5907\u5206\u7c7b\u521b\u5efa\\\u72ec\u7acb\u8bbe\u5907\\\u8f66\u884c\u9053\u95f8_\u505c\u7b80\u5355",
                "ModDate" : "2021-11-08-10-49-54",
                "MaterialChecked" : "true",
                "ResetTransform" : "true",
                "MaxHandle" : 2
            },
            "mesh" : 0,
            "name" : "Lo-BODY_01",
            "translation" : [
                -0.662748396396637,
                0.07544433325529099,
                -0.3572119176387787
            ]
        },
        {
            "extras" : {
                "NameChecked" : "true",
                "Author" : "\u90dd\u4e2d\u884c",
                "MeshChecked" : "true",
                "Derivation" : "20211103\u8bbe\u5907\u5206\u7c7b\u521b\u5efa\\\u72ec\u7acb\u8bbe\u5907\\\u8f66\u884c\u9053\u95f8_\u505c\u7b80\u5355",
                "ModDate" : "2021-11-08-10-49-54",
                "MaterialChecked" : "true",
                "ResetTransform" : "true",
                "MaxHandle" : 3
            },
            "mesh" : 1,
            "name" : "Lo-ELEMENT_01",
            "translation" : [
                -0.662748396396637,
                0.07544433325529099,
                0.4773527681827545
            ]
        },
        {
            "extras" : {
                "NameChecked" : "true",
                "Author" : "\u90dd\u4e2d\u884c",
                "MeshChecked" : "true",
                "Derivation" : "20211103\u8bbe\u5907\u5206\u7c7b\u521b\u5efa\\\u72ec\u7acb\u8bbe\u5907\\\u8f66\u884c\u9053\u95f8_\u505c\u7b80\u5355",
                "ModDate" : "2021-11-08-10-49-54",
                "MaterialChecked" : "true",
                "ResetTransform" : "true",
                "MaxHandle" : 4
            },
            "mesh" : 2,
            "name" : "Lo-LOGO_01",
            "translation" : [
                -0.844900369644165,
                1.9811022281646729,
                0.4101761281490326
            ]
        },
        {
            "extras" : {
                "Author" : "\u90dd\u4e2d\u884c",
                "MeshChecked" : "true",
                "Derivation" : "20211103\u8bbe\u5907\u5206\u7c7b\u521b\u5efa\\\u72ec\u7acb\u8bbe\u5907\\\u8f66\u884c\u9053\u95f8_\u505c\u7b80\u5355",
                "ModDate" : "2021-11-08-10-49-54",
                "MaterialChecked" : "true",
                "ResetTransform" : "true",
                "NameChecked" : "false",
                "MaxHandle" : 5
            },
            "mesh" : 3,
            "name" : "Lo-PRINT_01",
            "rotation" : [
                0,
                0,
                -0.00048653787234798074,
                1
            ],
            "translation" : [
                -0.9051467776298523,
                0.06295411288738251,
                -0.3572118878364563
            ]
        }
    ],
    "animations" : [
        {
            "channels" : [
                {
                    "sampler" : 0,
                    "target" : {
                        "node" : 2,
                        "path" : "translation"
                    }
                },
                {
                    "sampler" : 1,
                    "target" : {
                        "node" : 2,
                        "path" : "rotation"
                    }
                },
                {
                    "sampler" : 2,
                    "target" : {
                        "node" : 2,
                        "path" : "scale"
                    }
                },
                {
                    "sampler" : 3,
                    "target" : {
                        "node" : 3,
                        "path" : "translation"
                    }
                },
                {
                    "sampler" : 4,
                    "target" : {
                        "node" : 3,
                        "path" : "rotation"
                    }
                }
            ],
            "name" : "\u5f00",
            "samplers" : [
                {
                    "input" : 22,
                    "interpolation" : "STEP",
                    "output" : 23
                },
                {
                    "input" : 22,
                    "interpolation" : "STEP",
                    "output" : 24
                },
                {
                    "input" : 22,
                    "interpolation" : "STEP",
                    "output" : 25
                },
                {
                    "input" : 26,
                    "interpolation" : "LINEAR",
                    "output" : 27
                },
                {
                    "input" : 26,
                    "interpolation" : "LINEAR",
                    "output" : 28
                }
            ]
        },
        {
            "channels" : [
                {
                    "sampler" : 0,
                    "target" : {
                        "node" : 3,
                        "path" : "translation"
                    }
                },
                {
                    "sampler" : 1,
                    "target" : {
                        "node" : 3,
                        "path" : "rotation"
                    }
                }
            ],
            "name" : "\u5173",
            "samplers" : [
                {
                    "input" : 26,
                    "interpolation" : "LINEAR",
                    "output" : 29
                },
                {
                    "input" : 26,
                    "interpolation" : "LINEAR",
                    "output" : 30
                }
            ]
        }
    ],
    "materials" : [
        {
            "doubleSided" : true,
            "extras" : {
                "\u542f\u7528" : 0
            },
            "name" : "Std_\u8f66\u884c\u9053\u95f8_\u505c\u7b80\u5355.jpg",
            "pbrMetallicRoughness" : {
                "baseColorTexture" : {
                    "index" : 0
                },
                "metallicRoughnessTexture" : {
                    "extensions" : {
                        "KHR_texture_transform" : {
                            "offset" : [
                                3,
                                -4.9999999105930355
                            ],
                            "scale" : [
                                2.9999999105930355,
                                2.9999999105930355
                            ]
                        }
                    },
                    "index" : 1
                },
                "roughnessFactor" : 0.858578622341156
            }
        }
    ],
    "meshes" : [
        {
            "name" : "Mesh",
            "primitives" : [
                {
                    "attributes" : {
                        "POSITION" : 0,
                        "NORMAL" : 1,
                        "TEXCOORD_0" : 2,
                        "TEXCOORD_1" : 3,
                        "COLOR_0" : 4
                    },
                    "indices" : 5,
                    "material" : 0
                }
            ]
        },
        {
            "name" : "Mesh.001",
            "primitives" : [
                {
                    "attributes" : {
                        "POSITION" : 6,
                        "NORMAL" : 7,
                        "TEXCOORD_0" : 8,
                        "TEXCOORD_1" : 9,
                        "COLOR_0" : 10
                    },
                    "indices" : 11,
                    "material" : 0
                }
            ]
        },
        {
            "name" : "Mesh.002",
            "primitives" : [
                {
                    "attributes" : {
                        "POSITION" : 12,
                        "NORMAL" : 13,
                        "TEXCOORD_0" : 14
                    },
                    "indices" : 15,
                    "material" : 0
                }
            ]
        },
        {
            "name" : "Mesh.003",
            "primitives" : [
                {
                    "attributes" : {
                        "POSITION" : 16,
                        "NORMAL" : 17,
                        "TEXCOORD_0" : 18,
                        "TEXCOORD_1" : 19,
                        "COLOR_0" : 20
                    },
                    "indices" : 21,
                    "material" : 0
                }
            ]
        }
    ],
    "textures" : [
        {
            "sampler" : 0,
            "source" : 0
        },
        {
            "sampler" : 0,
            "source" : 1
        }
    ],
    "images" : [
        {
            "mimeType" : "image/jpeg",
            "name" : "\u8f66\u884c\u9053\u95f8_\u505c\u7b80\u5355",
            "uri" : "%E8%BD%A6%E8%A1%8C%E9%81%93%E9%97%B8_%E5%81%9C%E7%AE%80%E5%8D%95.jpg"
        },
        {
            "mimeType" : "image/png",
            "name" : "ReflectI_diffuse_01.Lib",
            "uri" : "ReflectI_diffuse_01_Lib.png"
        }
    ],
    "accessors" : [
        {
            "bufferView" : 0,
            "componentType" : 5126,
            "count" : 212,
            "max" : [
                0.33725157380104065,
                1.2463500499725342,
                1.0072119235992432
            ],
            "min" : [
                -0.33725157380104065,
                -0.07544433325529099,
                -0.2927880883216858
            ],
            "type" : "VEC3"
        },
        {
            "bufferView" : 1,
            "componentType" : 5126,
            "count" : 212,
            "type" : "VEC3"
        },
        {
            "bufferView" : 2,
            "componentType" : 5126,
            "count" : 212,
            "type" : "VEC2"
        },
        {
            "bufferView" : 3,
            "componentType" : 5126,
            "count" : 212,
            "type" : "VEC2"
        },
        {
            "bufferView" : 4,
            "componentType" : 5123,
            "count" : 212,
            "normalized" : true,
            "type" : "VEC4"
        },
        {
            "bufferView" : 5,
            "componentType" : 5123,
            "count" : 396,
            "type" : "SCALAR"
        },
        {
            "bufferView" : 6,
            "componentType" : 5126,
            "count" : 704,
            "max" : [
                0.37544524669647217,
                2.173727512359619,
                0.34744274616241455
            ],
            "min" : [
                -0.298134446144104,
                0,
                -0.26061153411865234
            ],
            "type" : "VEC3"
        },
        {
            "bufferView" : 7,
            "componentType" : 5126,
            "count" : 704,
            "type" : "VEC3"
        },
        {
            "bufferView" : 8,
            "componentType" : 5126,
            "count" : 704,
            "type" : "VEC2"
        },
        {
            "bufferView" : 9,
            "componentType" : 5126,
            "count" : 704,
            "type" : "VEC2"
        },
        {
            "bufferView" : 10,
            "componentType" : 5123,
            "count" : 704,
            "normalized" : true,
            "type" : "VEC4"
        },
        {
            "bufferView" : 11,
            "componentType" : 5123,
            "count" : 1134,
            "type" : "SCALAR"
        },
        {
            "bufferView" : 12,
            "componentType" : 5126,
            "count" : 216,
            "max" : [
                0.11493011564016342,
                0.10767211765050888,
                0.0732458084821701
            ],
            "min" : [
                -0.10344932228326797,
                -0.1196025088429451,
                -0.07365203648805618
            ],
            "type" : "VEC3"
        },
        {
            "bufferView" : 13,
            "componentType" : 5126,
            "count" : 216,
            "type" : "VEC3"
        },
        {
            "bufferView" : 14,
            "componentType" : 5126,
            "count" : 216,
            "type" : "VEC2"
        },
        {
            "bufferView" : 15,
            "componentType" : 5123,
            "count" : 1140,
            "type" : "SCALAR"
        },
        {
            "bufferView" : 16,
            "componentType" : 5126,
            "count" : 304,
            "max" : [
                2.3441600799560547,
                1.0311965942382812,
                -0.21363312005996704
            ],
            "min" : [
                0.09803680330514908,
                0.9476873278617859,
                -0.24986205995082855
            ],
            "type" : "VEC3"
        },
        {
            "bufferView" : 17,
            "componentType" : 5126,
            "count" : 304,
            "type" : "VEC3"
        },
        {
            "bufferView" : 18,
            "componentType" : 5126,
            "count" : 304,
            "type" : "VEC2"
        },
        {
            "bufferView" : 19,
            "componentType" : 5126,
            "count" : 304,
            "type" : "VEC2"
        },
        {
            "bufferView" : 20,
            "componentType" : 5123,
            "count" : 304,
            "normalized" : true,
            "type" : "VEC4"
        },
        {
            "bufferView" : 21,
            "componentType" : 5123,
            "count" : 708,
            "type" : "SCALAR"
        },
        {
            "bufferView" : 22,
            "componentType" : 5126,
            "count" : 1,
            "max" : [
                0.03333333333333333
            ],
            "min" : [
                0.03333333333333333
            ],
            "type" : "SCALAR"
        },
        {
            "bufferView" : 23,
            "componentType" : 5126,
            "count" : 1,
            "type" : "VEC3"
        },
        {
            "bufferView" : 24,
            "componentType" : 5126,
            "count" : 1,
            "type" : "VEC4"
        },
        {
            "bufferView" : 25,
            "componentType" : 5126,
            "count" : 1,
            "type" : "VEC3"
        },
        {
            "bufferView" : 26,
            "componentType" : 5126,
            "count" : 40,
            "max" : [
                1.3333333333333333
            ],
            "min" : [
                0.03333333333333333
            ],
            "type" : "SCALAR"
        },
        {
            "bufferView" : 27,
            "componentType" : 5126,
            "count" : 40,
            "type" : "VEC3"
        },
        {
            "bufferView" : 28,
            "componentType" : 5126,
            "count" : 40,
            "type" : "VEC4"
        },
        {
            "bufferView" : 29,
            "componentType" : 5126,
            "count" : 40,
            "type" : "VEC3"
        },
        {
            "bufferView" : 30,
            "componentType" : 5126,
            "count" : 40,
            "type" : "VEC4"
        }
    ],
    "bufferViews" : [
        {
            "buffer" : 0,
            "byteLength" : 2544,
            "byteOffset" : 0
        },
        {
            "buffer" : 0,
            "byteLength" : 2544,
            "byteOffset" : 2544
        },
        {
            "buffer" : 0,
            "byteLength" : 1696,
            "byteOffset" : 5088
        },
        {
            "buffer" : 0,
            "byteLength" : 1696,
            "byteOffset" : 6784
        },
        {
            "buffer" : 0,
            "byteLength" : 1696,
            "byteOffset" : 8480
        },
        {
            "buffer" : 0,
            "byteLength" : 792,
            "byteOffset" : 10176
        },
        {
            "buffer" : 0,
            "byteLength" : 8448,
            "byteOffset" : 10968
        },
        {
            "buffer" : 0,
            "byteLength" : 8448,
            "byteOffset" : 19416
        },
        {
            "buffer" : 0,
            "byteLength" : 5632,
            "byteOffset" : 27864
        },
        {
            "buffer" : 0,
            "byteLength" : 5632,
            "byteOffset" : 33496
        },
        {
            "buffer" : 0,
            "byteLength" : 5632,
            "byteOffset" : 39128
        },
        {
            "buffer" : 0,
            "byteLength" : 2268,
            "byteOffset" : 44760
        },
        {
            "buffer" : 0,
            "byteLength" : 2592,
            "byteOffset" : 47028
        },
        {
            "buffer" : 0,
            "byteLength" : 2592,
            "byteOffset" : 49620
        },
        {
            "buffer" : 0,
            "byteLength" : 1728,
            "byteOffset" : 52212
        },
        {
            "buffer" : 0,
            "byteLength" : 2280,
            "byteOffset" : 53940
        },
        {
            "buffer" : 0,
            "byteLength" : 3648,
            "byteOffset" : 56220
        },
        {
            "buffer" : 0,
            "byteLength" : 3648,
            "byteOffset" : 59868
        },
        {
            "buffer" : 0,
            "byteLength" : 2432,
            "byteOffset" : 63516
        },
        {
            "buffer" : 0,
            "byteLength" : 2432,
            "byteOffset" : 65948
        },
        {
            "buffer" : 0,
            "byteLength" : 2432,
            "byteOffset" : 68380
        },
        {
            "buffer" : 0,
            "byteLength" : 1416,
            "byteOffset" : 70812
        },
        {
            "buffer" : 0,
            "byteLength" : 4,
            "byteOffset" : 72228
        },
        {
            "buffer" : 0,
            "byteLength" : 12,
            "byteOffset" : 72232
        },
        {
            "buffer" : 0,
            "byteLength" : 16,
            "byteOffset" : 72244
        },
        {
            "buffer" : 0,
            "byteLength" : 12,
            "byteOffset" : 72260
        },
        {
            "buffer" : 0,
            "byteLength" : 160,
            "byteOffset" : 72272
        },
        {
            "buffer" : 0,
            "byteLength" : 480,
            "byteOffset" : 72432
        },
        {
            "buffer" : 0,
            "byteLength" : 640,
            "byteOffset" : 72912
        },
        {
            "buffer" : 0,
            "byteLength" : 480,
            "byteOffset" : 73552
        },
        {
            "buffer" : 0,
            "byteLength" : 640,
            "byteOffset" : 74032
        }
    ],
    "samplers" : [
        {
            "magFilter" : 9729,
            "minFilter" : 9987
        }
    ],
    "buffers" : [
        {
            "byteLength" : 74672,
            "uri" : "barrier.bin"
        }
    ]
}
